Coordinates
version=1
nRows=11
nColumns=63
inDegrees=yes

Units are S.I. units (second, meters, Newtons, ...)
If the header above contains a line with 'inDegrees', this indicates whether rotational values are in degrees (yes) or radians (no).

endheader
time	pelvis_tilt	pelvis_list	pelvis_rotation	pelvis_tx	pelvis_ty	pelvis_tz	hip_flexion_r	hip_adduction_r	hip_rotation_r	knee_angle_r	knee_angle_r_beta	ankle_angle_r	subtalar_angle_r	mtp_angle_r	hip_flexion_l	hip_adduction_l	hip_rotation_l	knee_angle_l	knee_angle_l_beta	ankle_angle_l	subtalar_angle_l	mtp_angle_l	L5_S1_Flex_Ext	L5_S1_Lat_Bending	L5_S1_axial_rotation	L4_L5_Flex_Ext	L4_L5_Lat_Bending	L4_L5_axial_rotation	L3_L4_Flex_Ext	L3_L4_Lat_Bending	L3_L4_axial_rotation	L2_L3_Flex_Ext	L2_L3_Lat_Bending	L2_L3_axial_rotation	L1_L2_Flex_Ext	L1_L2_Lat_Bending	L1_L2_axial_rotation	L1_T12_Flex_Ext	L1_T12_Lat_Bending	L1_T12_axial_rotation	Abs_r3	Abs_r2	Abs_r1	Abs_t1	Abs_t2	neck_flexion	neck_bending	neck_rotation	arm_flex_r	arm_add_r	arm_rot_r	elbow_flex_r	pro_sup_r	wrist_flex_r	wrist_dev_r	arm_flex_l	arm_add_l	arm_rot_l	elbow_flex_l	pro_sup_l	wrist_flex_l	wrist_dev_l
      4.55932203	     -5.63340291	     -4.36970023	    100.16895302	      0.23319694	      0.76840907	      0.66104457	      1.09527474	     -2.94648835	     -5.41768273	      3.93216197	      0.06862917	     24.81501958	    -10.45204110	      0.00000000	      2.30709107	      2.48084984	     22.09834122	      1.30630715	      0.02279936	     17.81641129	    -14.49830876	      0.00000000	      0.34784043	     -0.02278664	     -0.62299991	      0.64597446	     -0.03030622	     -0.66193740	      0.57146704	     -0.05540343	     -0.66193740	      0.39754682	     -0.05540343	     -0.54512492	      0.32300462	     -0.04646651	     -0.50618742	      0.19875602	     -0.03529650	     -0.46724993	      2.48458938	     -0.25776698	     -3.46493857	      0.00000000	      0.00000000	     28.12674503	     -5.34662483	     -7.83054091	     21.25360857	    -10.48569308	     84.69531980	     24.98256396	     56.05953027	     -6.94033681	      2.00331612	     10.99897204	    -30.86097429	     65.76474889	     47.30025615	     65.58265204	     -6.40278137	      2.84938848
      4.57627119	     -5.36771227	     -4.41174645	    100.72083483	      0.23325060	      0.76841059	      0.66095452	      1.00757888	     -2.61196486	     -6.02007145	      3.66411872	      0.06395094	     24.82852919	    -10.19767763	      0.00000000	      2.37364129	      2.16037501	     22.56145474	      1.23087233	      0.02148277	     17.97916629	    -14.10473236	      0.00000000	      0.34937212	      0.00498531	     -0.57622689	      0.64881897	      0.00663046	     -0.61224107	      0.57398346	      0.01212129	     -0.61224107	      0.39929740	      0.01212129	     -0.50419853	      0.32442695	      0.01016605	     -0.46818435	      0.19963123	      0.00772225	     -0.43217017	      2.49553013	      0.05639484	     -3.20480110	      0.00000000	      0.00000000	     28.13364869	     -6.11076065	     -8.47139687	     20.19299113	    -11.79204016	     82.02810481	     24.69236374	     53.42312075	     -3.89517290	      2.91437998	      9.84598011	    -34.44778800	     67.51389243	     50.15324662	     67.52054629	     -5.30907547	      3.36252632
      4.59322034	     -5.14437966	     -4.37274809	    100.89815554	      0.23324688	      0.76851479	      0.66072998	      0.87214958	     -2.35366352	     -6.70987195	      3.40990443	      0.05951406	     24.90077741	     -9.33732020	      0.00000000	      2.29591305	      1.89042544	     22.35081746	      1.12494942	      0.01963407	     18.22516993	    -13.39247297	      0.00000000	      0.34332429	      0.03854551	     -0.48518562	      0.63758754	      0.05126552	     -0.51550972	      0.56404748	      0.09371955	     -0.51550972	      0.39238533	      0.09371955	     -0.42453742	      0.31881094	      0.07860200	     -0.39421332	      0.19617550	      0.05970699	     -0.36388922	      2.45233109	      0.43603448	     -2.69845688	      0.00000000	      0.00000000	     28.13368199	     -7.07648406	     -9.04239165	     19.25383612	    -13.08585302	     79.04980980	     24.58722996	     53.41624672	     -2.52702095	      4.31843375	      7.38088357	    -37.91113053	     64.59454543	     53.90321220	     80.25399077	     -0.25637498	      6.14496628
      4.61016949	     -5.06251250	     -4.19099223	    100.92981707	      0.23326297	      0.76889068	      0.66084762	      0.57373641	     -2.20441053	     -6.83796754	      3.11464010	      0.05436072	     24.66887322	     -9.24552849	      0.00000000	      2.03851926	      1.75574221	     22.10926656	      1.05166665	      0.01835505	     18.15445148	    -12.86736056	      0.00000000	      0.30906978	      0.06375608	     -0.35208937	      0.57397348	      0.08479559	     -0.37409496	      0.50777073	      0.15501654	     -0.37409496	      0.35323585	      0.15501654	     -0.30807820	      0.28700219	      0.13001140	     -0.28607262	      0.17660247	      0.09875817	     -0.26406703	      2.20765450	      0.72122155	     -1.95821548	      0.00000000	      0.00000000	     28.10073857	     -8.12209746	     -9.42629488	     18.64124487	    -14.22143570	     76.70901326	     24.23357055	     56.18508600	     -2.54480008	      5.14342423	      6.08817595	    -41.73689591	     64.67568421	     58.95581668	     87.32050187	      4.55401408	     10.08291197
      4.62711864	     -4.97428325	     -3.96796611	    100.74488172	      0.23296006	      0.76924870	      0.66133731	      0.29411125	     -2.08475455	     -6.44222923	      2.85255909	      0.04978655	     24.18771381	     -9.65516996	      0.00000000	      1.73022373	      1.64906131	     21.46596443	      1.01508495	      0.01771657	     17.93289071	    -12.19243439	      0.00000000	      0.25976090	      0.10285200	     -0.13651295	      0.48240196	      0.13679316	     -0.14504501	      0.42676118	      0.25007435	     -0.14504501	      0.29688073	      0.25007435	     -0.11944883	      0.24121397	      0.20973579	     -0.11091677	      0.14842738	      0.15931774	     -0.10238471	      1.85544612	      1.16348237	     -0.75924407	      0.00000000	      0.00000000	     28.04518629	     -9.26067565	     -9.67753893	     16.35843923	    -15.60575944	     64.27821514	     25.29502979	     71.76354833	     -2.93465942	      8.23610507	      6.33795133	    -45.43915275	     67.34742661	     64.80792654	     88.66615496	     10.31656019	     16.52455678
      4.64406780	     -4.97155595	     -3.78480532	    100.45828113	      0.23245984	      0.76951612	      0.66245519	      0.08862953	     -2.10387802	     -6.06356402	      2.62085650	      0.04574258	     23.76689593	     -9.88353150	      0.00000000	      1.47111763	      1.67541352	     21.09905082	      1.01510473	      0.01771692	     17.29202128	    -12.15815310	      0.00000000	      0.19976311	      0.13614481	      0.03534375	      0.37098008	      0.18107260	      0.03755273	      0.32819082	      0.33102249	      0.03755273	      0.22830926	      0.33102249	      0.03092578	      0.18550003	      0.27762650	      0.02871680	      0.11414464	      0.21088831	      0.02650781	      1.42688795	      1.54009732	      0.19657133	      0.00000000	      0.00000000	     27.94589750	    -10.26159111	     -9.82447276	     15.47169321	    -16.82621574	     59.19430207	     25.78779201	     78.41857750	     -4.01480338	      9.58944903	      6.55486962	    -48.79903486	     69.27041704	     71.23094826	     89.01774742	     18.70149489	     24.42376770
      4.66101695	     -5.05116487	     -3.72138925	    100.20981842	      0.23161679	      0.76967841	      0.66414163	      0.04831264	     -2.26881697	     -5.89601831	      2.44413362	      0.04265818	     23.36731176	     -9.95769159	      0.00000000	      1.37173120	      1.84742865	     20.81322343	      1.06462854	      0.01858127	     16.39668030	    -12.30798897	      0.00000000	      0.14135986	      0.16528705	      0.15887895	      0.26251939	      0.21983177	      0.16880889	      0.23224011	      0.40187893	      0.16880889	      0.16156018	      0.40187893	      0.13901908	      0.13126676	      0.33705335	      0.12908915	      0.08077302	      0.25602964	      0.11915921	      1.00971933	      1.86976014	      0.88363707	      0.00000000	      0.00000000	     27.77733354	    -11.25079821	     -9.75683587	     15.30281792	    -18.07625474	     58.04661922	     25.68177336	     80.02814064	     -5.63760997	      9.36831059	      6.41746866	    -52.14056174	     70.74921375	     78.13321750	     89.07775376	     25.20901818	     28.96610468
      4.67796610	     -5.16798916	     -3.90616232	    100.13460333	      0.23032619	      0.76945144	      0.66599655	      0.23830394	     -2.52935720	     -5.72737991	      2.24462961	      0.03917618	     23.03404479	    -10.22823270	      0.00000000	      1.55933946	      2.12268754	     20.75878665	      1.13096237	      0.01973902	     15.38844916	    -12.57847305	      0.00000000	      0.11409362	      0.19133717	      0.18549711	      0.21188326	      0.25447844	      0.19709067	      0.18744441	      0.46521721	      0.19709067	      0.13039760	      0.46521721	      0.16230997	      0.10594733	      0.39017477	      0.15071640	      0.06519309	      0.29638128	      0.13912283	      0.81495931	      2.16444438	      1.03167925	      0.00000000	      0.00000000	     27.58381131	    -11.99634156	     -9.01228804	     14.99964466	    -19.12086535	     56.16513935	     25.28105160	     80.93682703	     -6.53588050	      8.44227340	      4.05234715	    -55.70741200	     69.21321277	     85.62478483	     88.98666037	     28.77031334	     29.87009750
      4.69491525	     -5.33787801	     -4.22880875	    100.15110142	      0.22901377	      0.76901528	      0.66821543	      0.59999867	     -2.87566508	     -5.73075080	      2.06545738	      0.03604903	     22.89645416	    -10.29676830	      0.00000000	      1.95440895	      2.49219576	     20.63789330	      1.23572379	      0.02156745	     14.37795268	    -12.76876896	      0.00000000	      0.09895500	      0.20049503	      0.22109491	      0.18376933	      0.26665839	      0.23491334	      0.16257317	      0.48748362	      0.23491334	      0.11309567	      0.48748362	      0.19345804	      0.09188961	      0.40884947	      0.17963961	      0.05654289	      0.31056681	      0.16582118	      0.70682565	      2.26803992	      1.22966353	      0.00000000	      0.00000000	     27.37688324	    -12.39030522	     -8.57127197	     14.59406252	    -20.02497543	     54.47671998	     24.46011399	     80.07899339	     -7.47550587	      6.42169147	      1.38032388	    -59.51828193	     67.23869708	     93.44650724	     88.68097032	     28.59574226	     27.76405337
      4.71186441	     -5.26420272	     -4.69907803	    100.40190400	      0.22704868	      0.76829712	      0.67042655	      1.11229668	     -3.01766204	     -5.80699406	      1.85096079	      0.03230536	     22.70345304	    -10.53440508	      0.00000000	      2.56841706	      2.65807089	     21.20531125	      1.31752031	      0.02299507	     13.62539593	    -13.35699906	      0.00000000	      0.11384066	      0.23953638	      0.11469020	      0.21141349	      0.31858338	      0.12185834	      0.18702882	      0.58240875	      0.12185834	      0.13010849	      0.58240875	      0.10035393	      0.10571244	      0.48846258	      0.09318579	      0.06504855	      0.37104185	      0.08601765	      0.81315245	      2.70968341	      0.63787251	      0.00000000	      0.00000000	     27.27867656	    -12.51778265	     -7.25722037	     14.57370114	    -20.92049277	     53.15399553	     23.45315535	     77.20951544	     -6.98629848	      3.98885794	     -4.90756905	    -62.82748300	     61.57045329	    100.82849247	     87.95192263	     24.79643701	     23.69105689
      4.72881356	     -5.19366170	     -5.23498620	    100.58485704	      0.22541936	      0.76745879	      0.67250232	      1.72937271	     -3.16566959	     -5.91891537	      1.69912651	      0.02965535	     22.62967139	    -10.62829094	      0.00000000	      3.28673382	      2.83195175	     21.53817712	      1.42253676	      0.02482795	     13.14559115	    -13.75628253	      0.00000000	      0.13358990	      0.25944579	      0.05432360	      0.24808981	      0.34506290	      0.05771882	      0.21947485	      0.63081649	      0.05771882	      0.15267990	      0.63081649	      0.04753315	      0.12405158	      0.52906185	      0.04413792	      0.07633327	      0.40188153	      0.04074270	      0.95421933	      2.93490264	      0.30213155	      0.00000000	      0.00000000	     27.27228196	    -12.17938843	     -6.89476732	     14.52964168	    -21.67864888	     51.70606323	     22.34521529	     72.74319220	     -7.01676742	      1.15288355	    -11.58294154	    -65.51835066	     56.25922152	    107.24195707	     86.29914404	     18.73777048	     18.44000101
